<svg xmlns="http://www.w3.org/2000/svg" viewBox="0 0 1200 630" role="img" aria-label="Project dashboard illustration">
  <rect width="1200" height="630" fill="#ffffff"/>
  <rect x="50" y="50" width="1100" height="530" fill="#f8f8f8" stroke="#111111" stroke-width="4"/>
  <rect x="90" y="100" width="420" height="40" fill="#111111"/>
  <rect x="90" y="170" width="300" height="18" fill="#3c3c3c"/>
  <rect x="90" y="205" width="360" height="18" fill="#7a7a7a"/>
  <rect x="90" y="240" width="250" height="18" fill="#b0b0b0"/>
  <rect x="560" y="100" width="560" height="220" fill="#ffffff" stroke="#111111" stroke-width="3"/>
  <polyline points="590,280 690,220 770,250 870,170 980,210 1090,140" fill="none" stroke="#111111" stroke-width="6"/>
  <rect x="560" y="350" width="260" height="180" fill="#ffffff" stroke="#111111" stroke-width="3"/>
  <rect x="860" y="350" width="260" height="180" fill="#ffffff" stroke="#111111" stroke-width="3"/>
  <rect x="600" y="390" width="180" height="20" fill="#111111"/>
  <rect x="600" y="425" width="140" height="14" fill="#6d6d6d"/>
  <rect x="900" y="390" width="180" height="20" fill="#111111"/>
  <rect x="900" y="425" width="140" height="14" fill="#6d6d6d"/>
</svg>
