<svg xmlns="http://www.w3.org/2000/svg" viewBox="0 0 64 64" role="img" aria-label="Science math computer favicon">
  <defs>
    <linearGradient id="bg" x1="0" y1="0" x2="1" y2="1">
      <stop offset="0" stop-color="#efe7d5"/>
      <stop offset="1" stop-color="#d8cbb0"/>
    </linearGradient>
  </defs>

  <rect x="2" y="2" width="60" height="60" rx="12" fill="url(#bg)" stroke="#2f2a22" stroke-width="2"/>

  <g fill="none" stroke="#1f3a5a" stroke-width="2.2" stroke-linecap="round">
    <ellipse cx="32" cy="30" rx="19" ry="8"/>
    <ellipse cx="32" cy="30" rx="19" ry="8" transform="rotate(60 32 30)"/>
    <ellipse cx="32" cy="30" rx="19" ry="8" transform="rotate(-60 32 30)"/>
  </g>

  <circle cx="32" cy="30" r="3.6" fill="#c83f24"/>

  <text x="32" y="52" text-anchor="middle" font-size="16" font-family="Georgia, Times New Roman, serif" font-weight="700" fill="#2f2a22">pi</text>

  <g transform="translate(45 44)">
    <rect x="0" y="0" width="13" height="13" rx="2.5" fill="#2f2a22"/>
    <rect x="3" y="3" width="7" height="7" rx="1" fill="#efe7d5"/>
    <g stroke="#2f2a22" stroke-width="1.2">
      <line x1="2" y1="-2" x2="2" y2="0"/>
      <line x1="6.5" y1="-2" x2="6.5" y2="0"/>
      <line x1="11" y1="-2" x2="11" y2="0"/>
      <line x1="2" y1="13" x2="2" y2="15"/>
      <line x1="6.5" y1="13" x2="6.5" y2="15"/>
      <line x1="11" y1="13" x2="11" y2="15"/>
      <line x1="-2" y1="2" x2="0" y2="2"/>
      <line x1="-2" y1="6.5" x2="0" y2="6.5"/>
      <line x1="-2" y1="11" x2="0" y2="11"/>
      <line x1="13" y1="2" x2="15" y2="2"/>
      <line x1="13" y1="6.5" x2="15" y2="6.5"/>
      <line x1="13" y1="11" x2="15" y2="11"/>
    </g>
  </g>
</svg>
